#N canvas 42 23 539 131 10;
#N canvas 306 23 1068 855 tabread4 0;
#X obj 36 12 ameize-parameter~ \$0 playbackRate 1;
#X obj 261 12 ameize-parameter~ \$0 detune 0;
#X obj 36 34 expr~ $v1 * pow(2 \, $v2 / 1200);
#X obj 590 34 switch~;
#X obj 51 788 tabread4~;
#X msg 60 762 set \$1;
#X obj 573 99 array size;
#X text 56 63 computedPlaybackRate;
#X obj 42 681 *~ 44100;
#X obj 573 77 t b s;
#X obj 51 810 outlet~;
#X obj 611 545 value _\$0_loop_end;
#X obj 594 604 t b f;
#X obj 585 625 -;
#X obj 585 647 value _\$0_loop_duration;
#X obj 612 454 <= 0;
#X obj 587 412 t f f;
#X obj 612 493 value _\$0_buffer_duration;
#X obj 612 474 sel 1;
#X text 698 454 set and update when loop-end ≤ 0;
#X obj 573 54 ameize-receive \$0 buffer;
#X obj 590 12 ameize-scheduled-source \$0 ameize-buffer-source;
#X obj 41 483 *~;
#X obj 573 121 ameize-send \$0 buffer-size;
#X obj 590 210 ameize-send \$0 buffer-duration;
#X obj 86 656 ameize-receive \$0 samplerate;
#X obj 61 743 ameize-receive \$0 buffer;
#X obj 776 474 ameize-receive \$0 buffer-duration;
#X obj 590 188 / 44100;
#X obj 590 166 t b f;
#X obj 590 144 ameize-receive \$0 samplerate;
#X obj 587 385 ameize-receive \$0 loopEnd;
#X obj 594 581 ameize-receive \$0 loopStart;
#X obj 115 276 f;
#X obj 115 254 t b;
#X obj 139 255 ameize-receive \$0 start-offset;
#X obj 38 207 /~;
#X obj 43 380 phasor~ 1;
#X obj 96 167 ameize-receive \$0 play-duration;
#X obj 99 443 ameize-receive \$0 play-duration;
#X obj 358 695 ameize-receive \$0 buffer-duration;
#X obj 43 598 +~;
#X obj 154 507 ameize-receive \$0 loop;
#X obj 154 534 t b f;
#X obj 117 572 *;
#X obj 119 488 ameize-receive \$0 loopStart;
#X obj 396 716 ameize-receive \$0 loop;
#X obj 407 789 == 0;
#X obj 361 835 ameize-send \$0 play-duration;
#X obj 358 764 f;
#X obj 396 741 t b f;
#X obj 588 282 value _\$0_loop;
#X obj 587 342 value _\$0_loop_start;
#X obj 588 262 ameize-receive \$0 loop;
#X obj 587 323 ameize-receive \$0 loopStart;
#X obj 574 228 value _\$0_buffer_duration;
#X obj 630 712 ameize-receive \$0 loop;
#X obj 595 831 ameize-send \$0 play-duration;
#X obj 592 760 f;
#X obj 630 737 t b f;
#X obj 592 691 ameize-receive \$0 loop-duration;
#X obj 566 666 ameize-send \$0 loop-duration;
#X obj 362 811 spigot 1;
#X obj 596 807 spigot;
#X obj 171 273 ameize-receive \$0 play-duration;
#X obj 113 303 /;
#X obj 167 364 ameize-debug \$0 offset;
#X obj 113 324 clip 0 1;
#X obj 115 232 ameize-receive \$0 started;
#X obj 585 523 t f f;
#X obj 776 496 spigot 1;
#X obj 530 262 loadbang;
#X msg 530 283 0;
#N canvas 0 23 450 300 reverse-detection 0;
#X msg 116 117 0;
#X msg 345 114 1;
#X obj 116 139 ameize-send \$0 reverse;
#X obj 185 52 loadbang;
#X msg 185 72 0;
#X obj 345 55 loadbang;
#X msg 345 75 1;
#X obj 276 95 threshold~ 0;
#X obj 116 95 threshold~ 0;
#X obj 117 53 inlet~;
#X text 219 32 loadbangs for initial send;
#X connect 0 0 2 0;
#X connect 1 0 2 0;
#X connect 3 0 4 0;
#X connect 4 0 8 1;
#X connect 5 0 6 0;
#X connect 6 0 7 1;
#X connect 7 1 1 0;
#X connect 8 0 0 0;
#X connect 9 0 8 0;
#X connect 9 0 7 0;
#X restore 65 122 pd reverse-detection;
#N canvas 0 23 302 317 end-detection 0;
#X obj 36 228 sel 0;
#X obj 36 258 ameize-send \$0 stop;
#X obj 36 204 value _\$0_loop;
#X obj 34 60 threshold~ 0.5 0 0.5 0;
#X obj 113 92 ameize-receive \$0 reverse;
#X obj 34 161 spigot;
#X obj 163 158 spigot;
#X obj 196 136 == 0;
#X obj 33 27 inlet~;
#X connect 0 0 1 0;
#X connect 2 0 0 0;
#X connect 3 0 5 0;
#X connect 3 1 6 0;
#X connect 4 0 5 1;
#X connect 4 0 7 0;
#X connect 5 0 2 0;
#X connect 6 0 2 0;
#X connect 7 0 6 1;
#X connect 8 0 3 0;
#X restore 77 416 pd end-detection;
#X connect 0 0 2 0;
#X connect 1 0 2 1;
#X connect 2 0 36 0;
#X connect 2 0 73 0;
#X connect 4 0 10 0;
#X connect 5 0 4 0;
#X connect 6 0 23 0;
#X connect 6 0 28 0;
#X connect 8 0 4 0;
#X connect 9 0 6 0;
#X connect 9 1 6 1;
#X connect 12 0 13 0;
#X connect 12 1 13 1;
#X connect 13 0 14 0;
#X connect 13 0 61 0;
#X connect 15 0 18 0;
#X connect 15 0 70 1;
#X connect 16 0 69 0;
#X connect 16 1 15 0;
#X connect 17 0 69 0;
#X connect 18 0 17 0;
#X connect 20 0 9 0;
#X connect 21 0 3 0;
#X connect 22 0 41 0;
#X connect 25 0 8 1;
#X connect 26 0 5 0;
#X connect 27 0 70 0;
#X connect 28 0 24 0;
#X connect 28 0 55 0;
#X connect 29 0 28 0;
#X connect 29 1 28 1;
#X connect 30 0 29 0;
#X connect 31 0 16 0;
#X connect 32 0 12 0;
#X connect 33 0 65 0;
#X connect 34 0 33 0;
#X connect 35 0 33 1;
#X connect 36 0 37 0;
#X connect 37 0 22 0;
#X connect 37 0 74 0;
#X connect 38 0 36 1;
#X connect 39 0 22 1;
#X connect 40 0 49 0;
#X connect 41 0 8 0;
#X connect 42 0 43 0;
#X connect 43 0 44 0;
#X connect 43 1 44 1;
#X connect 44 0 41 1;
#X connect 45 0 44 0;
#X connect 46 0 50 0;
#X connect 47 0 62 1;
#X connect 49 0 62 0;
#X connect 50 0 49 0;
#X connect 50 1 47 0;
#X connect 53 0 51 0;
#X connect 54 0 52 0;
#X connect 56 0 59 0;
#X connect 58 0 63 0;
#X connect 59 0 58 0;
#X connect 59 1 63 1;
#X connect 60 0 58 0;
#X connect 62 0 48 0;
#X connect 63 0 57 0;
#X connect 64 0 65 1;
#X connect 65 0 67 0;
#X connect 67 0 37 1;
#X connect 67 0 66 0;
#X connect 68 0 34 0;
#X connect 69 0 13 0;
#X connect 69 1 11 0;
#X connect 70 0 69 0;
#X connect 71 0 72 0;
#X connect 72 0 51 0;
#X restore 18 12 pd tabread4;
#X obj 18 42 ameize-outlet~ \$0 output-0;
#X text 96 14 switch~ inside to output 0 on mute;
#X connect 0 0 1 0;
