#N canvas 76 23 335 159 10;
#X obj 32 119 outlet;
#X text 84 121 get rid of extraneous 'list';
#X obj 32 10 receive \$1-\$2;
#X obj 32 78 list trim;
#X obj 116 60 spigot;
#X obj 117 82 print ameize-receive \$1 \$2;
#X obj 149 40 value ameize_debug;
#X obj 149 19 loadbang;
#X connect 2 0 3 0;
#X connect 2 0 4 0;
#X connect 3 0 0 0;
#X connect 4 0 5 0;
#X connect 6 0 4 1;
#X connect 7 0 6 0;
