#N canvas 27 23 645 314 10;
#X obj 267 168 soundfiler;
#X msg 267 144 read -resize \$1 \$2;
#X obj 466 51 loadbang;
#X obj 466 73 symbol ameize-buffer;
#X obj 466 101 ameize-debug \$0 new;
#X obj 20 16 array define \$0-buffer;
#X obj 267 120 list append \$0-buffer;
#X obj 15 115 array size \$0-buffer;
#X obj 15 145 ameize-send \$0 length-return;
#X obj 15 84 ameize-receive \$0 length;
#X obj 267 95 ameize-receive \$0 read;
#X obj 294 235 ameize-send \$0 ready;
#X obj 267 195 sel 0;
#X obj 294 214 t b;
#X text 307 194 size;
#X connect 0 0 12 0;
#X connect 1 0 0 0;
#X connect 2 0 3 0;
#X connect 3 0 4 0;
#X connect 6 0 1 0;
#X connect 7 0 8 0;
#X connect 9 0 7 0;
#X connect 10 0 6 0;
#X connect 12 1 13 0;
#X connect 13 0 11 0;
