#N canvas 465 23 494 559 10;
#X obj 130 375 outlet~;
#X obj 123 183 float 0;
#X obj 134 138 loadbang;
#X text 49 18 \$1 id;
#X text 49 40 \$2 name;
#X text 49 62 \$3 default value;
#N canvas 380 95 274 110 audio-parameter~ 0;
#X obj 180 12 inlet;
#X obj 180 38 switch~;
#X obj 5 52 outlet~;
#X obj 5 14 ameize-inlet~ \$1 \$2-audio;
#X connect 0 0 1 0;
#X connect 3 0 2 0;
#X restore 56 279 pd audio-parameter~ \$1 \$2;
#N canvas 453 23 459 342 control-parameter 0;
#X obj 338 28 inlet;
#X obj 338 54 switch~;
#X obj 92 269 outlet~;
#X obj 92 235 line~;
#X msg 15 183 stop;
#X obj 273 114 loadbang;
#X text 272 86 default;
#X obj 15 159 route cancel setValue linearRampToValue;
#X obj 274 157 float \$3;
#X obj 14 67 ameize-receive \$1-\$2-control;
#X connect 0 0 1 0;
#X connect 3 0 2 0;
#X connect 4 0 3 0;
#X connect 5 0 8 0;
#X connect 7 0 4 0;
#X connect 7 1 3 0;
#X connect 7 2 3 0;
#X connect 7 3 3 0;
#X connect 8 0 3 0;
#X connect 9 0 7 0;
#X restore 215 280 pd control-parameter \$1 \$2 \$3;
#X obj 215 243 == 0;
#X obj 123 113 ameize-receive \$1-\$2-audio-connected;
#X connect 1 0 6 0;
#X connect 1 0 8 0;
#X connect 2 0 1 0;
#X connect 6 0 0 0;
#X connect 7 0 0 0;
#X connect 8 0 7 0;
#X connect 9 0 1 0;
