#N canvas 110 23 313 145 10;
#X obj 22 91 ameize-outlet~ \$0 output-0;
#N canvas 521 141 599 172 osc 0;
#X obj 22 60 osc~ 440;
#X obj 22 29 ameize-parameter~ \$0 frequency 440;
#X obj 317 78 switch~;
#X obj 20 96 outlet~;
#X obj 317 55 ameize-scheduled-source \$0 ameize-oscillator;
#X connect 0 0 3 0;
#X connect 1 0 0 0;
#X connect 4 0 2 0;
#X restore 22 62 pd osc;
#X text 69 59 switch~ inside to output 0 on mute;
#X connect 1 0 0 0;
