#N canvas 392 204 494 559 10;
#X obj 130 375 outlet~;
#X text 49 18 \$1 id;
#X text 49 40 \$2 name;
#X text 49 62 \$3 default value;
#N canvas 380 95 274 110 audio-parameter~ 0;
#X obj 5 52 outlet~;
#X obj 5 14 ameize-inlet~ \$1 \$2-audio;
#X connect 1 0 0 0;
#X restore 56 279 pd audio-parameter~ \$1 \$2;
#N canvas 981 49 675 393 control-parameter 0;
#X obj 192 301 outlet~;
#X obj 192 267 line~;
#X msg 113 143 stop;
#X obj 25 176 loadbang;
#X text 24 148 default;
#X obj 26 219 float \$3;
#X obj 112 27 ameize-receive \$1-\$2-control;
#X obj 412 191 print \$1-\$2-control unknown;
#X obj 261 162 unpack 0 0;
#X obj 327 186 * 1000;
#X obj 260 218 pack 0 0;
#X obj 112 120 route cancel setValue linearRampToValue;
#X connect 1 0 0 0;
#X connect 2 0 1 0;
#X connect 3 0 5 0;
#X connect 5 0 1 0;
#X connect 6 0 11 0;
#X connect 8 0 10 0;
#X connect 8 1 9 0;
#X connect 9 0 10 1;
#X connect 10 0 1 0;
#X connect 11 0 2 0;
#X connect 11 1 1 0;
#X connect 11 2 8 0;
#X connect 11 3 7 0;
#X restore 249 279 pd control-parameter \$1 \$2 \$3;
#X connect 4 0 0 0;
#X connect 5 0 0 0;
