#N canvas 461 138 743 382 10;
#X msg 200 82 1;
#X msg 48 77 0;
#X obj 21 55 t b b;
#X obj 98 116 outlet;
#X obj 21 17 ameize-receive \$1 stop;
#X obj 21 172 ameize-send \$1 ended;
#X obj 180 107 samplerate~;
#X obj 180 129 ameize-send \$1 samplerate;
#X obj 161 13 ameize-receive \$1 start;
#X obj 161 153 ameize-send \$1 started;
#X text 41 135 top-level switch;
#X obj 362 127 unpack 0 -1;
#X msg 372 185 0;
#X obj 345 210 f;
#X obj 50 255 loadbang;
#X obj 50 276 symbol \$2;
#X obj 50 297 ameize-debug \$1 new;
#X obj 282 243 ameize-send \$1 start-offset;
#X obj 544 201 > 0;
#X obj 518 224 spigot;
#X obj 518 181 t f f;
#X obj 541 277 del;
#X obj 541 297 ameize-send \$1 stop;
#X obj 577 203 ameize-receive \$1 stop;
#X msg 577 223 stop;
#X obj 487 321 ameize-send \$1 start-duration;
#X msg 573 177 0;
#X obj 518 244 * 1000;
#X obj 347 83 t b b l b;
#X obj 161 62 t b b b l;
#X connect 0 0 3 0;
#X connect 1 0 3 0;
#X connect 2 0 5 0;
#X connect 2 1 1 0;
#X connect 4 0 2 0;
#X connect 6 0 7 0;
#X connect 8 0 29 0;
#X connect 11 0 13 1;
#X connect 11 1 20 0;
#X connect 12 0 13 1;
#X connect 13 0 17 0;
#X connect 14 0 15 0;
#X connect 15 0 16 0;
#X connect 18 0 19 1;
#X connect 19 0 27 0;
#X connect 19 0 25 0;
#X connect 20 0 19 0;
#X connect 20 1 18 0;
#X connect 21 0 22 0;
#X connect 23 0 24 0;
#X connect 24 0 21 0;
#X connect 26 0 19 1;
#X connect 27 0 21 0;
#X connect 28 0 13 0;
#X connect 28 2 11 0;
#X connect 28 3 26 0;
#X connect 28 3 12 0;
#X connect 29 0 9 0;
#X connect 29 1 6 0;
#X connect 29 2 0 0;
#X connect 29 3 28 0;
