#N canvas 30 23 526 222 10;
#X obj 19 123 *~;
#X obj 212 39 ameize-parameter~ \$0 gain 1;
#X obj 20 39 ameize-inlet~ \$0 input-0;
#X obj 19 161 ameize-outlet~ \$0 output-0;
#X obj 293 79 loadbang;
#X obj 293 156 ameize-debug \$0 new;
#X obj 293 101 symbol ameize-gain;
#X connect 0 0 3 0;
#X connect 1 0 0 1;
#X connect 2 0 0 0;
#X connect 4 0 6 0;
#X connect 6 0 5 0;
