#N canvas 244 23 299 152 10;
#X obj 33 47 ameize-outlet~ \$0 output-0;
#N canvas 0 23 581 120 noise~ 0;
#X obj 29 24 noise~;
#X obj 241 42 switch~;
#X obj 29 54 outlet~;
#X obj 243 19 ameize-scheduled-source \$0 ameize-noise;
#X connect 0 0 2 0;
#X connect 3 0 1 0;
#X restore 33 18 pd noise~;
#X text 102 20 switch~ inside to output 0 on mute;
#X connect 1 0 0 0;
