#N canvas 586 338 427 241 10;
#X msg 233 77 1;
#X msg 48 77 0;
#X obj 21 55 t b b;
#X obj 98 116 outlet;
#X obj 21 17 ameize-receive \$1 stop;
#X obj 21 172 ameize-send \$1 ended;
#X obj 213 102 samplerate~;
#X obj 213 124 ameize-send \$1 samplerate;
#X obj 194 36 ameize-receive \$1 start;
#X obj 194 57 t b b b;
#X obj 194 148 ameize-send \$1 started;
#X text 41 135 top-level switch;
#X connect 0 0 3 0;
#X connect 1 0 3 0;
#X connect 2 0 5 0;
#X connect 2 1 1 0;
#X connect 4 0 2 0;
#X connect 6 0 7 0;
#X connect 8 0 9 0;
#X connect 9 0 10 0;
#X connect 9 1 6 0;
#X connect 9 2 0 0;
