#N canvas 169 23 358 303 10;
#X obj 10 169 receive~;
#X obj 10 198 throw~;
#X msg 28 144 set \$1;
#X obj 28 23 ameize-receive \$0-connect;
#X obj 101 172 print receive~;
#X obj 28 68 unpack s s;
#X msg 110 144 set \$1;
#X connect 0 0 1 0;
#X connect 2 0 0 0;
#X connect 2 0 4 0;
#X connect 3 0 5 0;
#X connect 5 0 2 0;
#X connect 5 1 6 0;
#X connect 6 0 1 0;
