#N canvas 556 24 450 300 10;
#X obj 19 16 inlet~;
#X obj 66 38 value ameize_debug;
#X obj 66 17 loadbang;
#X obj 66 59 metro 100;
#X obj 66 83 snapshot~;
#X obj 66 103 ameize-debug \$1 \$2;
#X connect 0 0 4 0;
#X connect 1 0 3 0;
#X connect 2 0 1 0;
#X connect 3 0 4 0;
#X connect 4 0 5 0;
