#N canvas 525 157 484 240 10;
#X obj 122 164 outlet~;
#X text 49 18 \$1 id;
#X text 49 40 \$2 name;
#X text 49 62 \$3 default value;
#N canvas 380 95 274 110 audio-parameter~ 0;
#X obj 5 52 outlet~;
#X obj 5 14 ameize-inlet~ \$1 \$2-audio;
#X connect 1 0 0 0;
#X restore 45 96 pd audio-parameter~ \$1 \$2;
#N canvas 529 71 830 436 control-parameter 1;
#X obj 16 35 loadbang;
#X obj 16 61 float \$3;
#X obj 607 106 print \$1-\$2-control unknown;
#X obj 134 35 ameize-receive \$1 \$2-control;
#N canvas 110 140 363 291 linear 0;
#X obj 217 71 unpack 0 0;
#X obj 284 98 * 1000;
#X obj 217 121 pack 0 0;
#X obj 217 25 inlet;
#X obj 136 207 outlet;
#X obj 136 170 line 0 5;
#X msg 103 74 stop;
#X obj 103 24 inlet;
#X connect 0 0 2 0;
#X connect 0 1 1 0;
#X connect 1 0 2 1;
#X connect 2 0 5 0;
#X connect 3 0 0 0;
#X connect 5 0 4 0;
#X connect 6 0 5 0;
#X connect 7 0 6 0;
#X restore 260 143 pd linear;
#N canvas 487 500 556 318 exponential 0;
#X obj 210 112 unpack 0 0;
#X obj 210 138 * 1000;
#X msg 210 163 0 0 \, 1 \$1 0;
#X msg 210 87 \$2 \$1;
#X obj 389 187 / 0;
#X obj 210 31 inlet;
#X obj 408 34 inlet;
#X obj 210 244 outlet;
#X obj 210 212 expr $f2 * pow( $f3 \, $f1 );
#X obj 210 188 line 0 5;
#X obj 55 33 inlet;
#X msg 55 82 stop;
#X connect 0 0 1 0;
#X connect 0 1 4 0;
#X connect 1 0 2 0;
#X connect 2 0 9 0;
#X connect 3 0 0 0;
#X connect 4 0 8 2;
#X connect 5 0 3 0;
#X connect 6 0 4 1;
#X connect 6 0 8 1;
#X connect 8 0 7 0;
#X connect 9 0 8 0;
#X connect 10 0 11 0;
#X connect 11 0 9 0;
#X restore 399 144 pd exponential;
#X obj 488 108 trigger l b;
#X obj 134 369 outlet~;
#X obj 134 293 line~;
#X obj 494 375 snapshot~;
#X msg 260 175 \$1 4;
#X obj 134 61 route setValue cancel linearRampToValue exponentialRampToValue
, f 68;
#X msg 424 301 set \$1;
#X text 421 281 important;
#X obj 134 236 t f f;
#X connect 0 0 1 0;
#X connect 1 0 14 0;
#X connect 3 0 11 0;
#X connect 4 0 10 0;
#X connect 5 0 10 0;
#X connect 6 0 5 1;
#X connect 6 1 9 0;
#X connect 8 0 7 0;
#X connect 8 0 9 0;
#X connect 9 0 5 2;
#X connect 10 0 8 0;
#X connect 11 0 14 0;
#X connect 11 1 4 0;
#X connect 11 1 5 0;
#X connect 11 2 4 1;
#X connect 11 3 6 0;
#X connect 11 4 2 0;
#X connect 12 0 9 0;
#X connect 14 0 8 0;
#X connect 14 1 12 0;
#X restore 238 96 pd control-parameter \$1 \$2 \$3;
#X connect 4 0 0 0;
#X connect 5 0 0 0;
