#N canvas 110 23 528 160 10;
#X obj 22 91 ameize-outlet~ \$0 output-0;
#N canvas 269 311 599 172 osc 1;
#X obj 22 60 osc~ 440;
#X obj 22 29 ameize-parameter~ \$0 frequency 440;
#X obj 292 29 ameize-scheduled-source \$0;
#X obj 21 96 outlet~;
#X obj 292 60 switch~;
#X connect 0 0 3 0;
#X connect 1 0 0 0;
#X connect 2 0 4 0;
#X restore 22 62 pd osc;
#X connect 1 0 0 0;
