#N canvas 642 23 528 160 10;
#X obj 22 60 osc~ 440;
#X obj 22 91 ameize-outlet~ \$0 output-0;
#X obj 22 29 ameize-parameter~ \$0 frequency 440;
#X obj 317 78 switch~;
#X obj 317 55 ameize-scheduled-source \$0;
#X connect 0 0 1 0;
#X connect 2 0 0 0;
#X connect 4 0 3 0;
