#N canvas 76 23 335 159 10;
#X obj 32 119 outlet;
#X text 84 121 get rid of extraneous 'list';
#X obj 32 10 receive \$1-\$2;
#X obj 108 78 ameize-debug \$1 ameize-receive-\$2;
#X obj 32 36 t a a;
#X obj 32 78 route list;
#X connect 2 0 4 0;
#X connect 4 0 5 0;
#X connect 4 1 3 0;
#X connect 5 0 0 0;
#X connect 5 1 0 0;
